<?xml version="1.0" encoding="utf-8"?>
<svg version="1.2" baseProfile="tiny-ps" viewBox="0 0 200 200" xmlns:xlink="http://www.w3.org/1999/xlink" xmlns="http://www.w3.org/2000/svg">
  <title>yuanmoe.com</title>
  <g>
    <g fill="#fff" transform="matrix(.1 0 0 -.1 0 200)">
      <path d="m1195 1844-70-14-71-35-71-35-48-51-48-51-86-18-86-17-68-32c-174-78-314-222-386-394l-29-72-17-90-17-89 7-76c3-41 13-104 21-140l15-65 45-94 46-94 86-87 87-87 70-41c94-54 170-79 328-103l132-21 80 6c212 15 415 126 525 286 55 81 87 149 111 237l22 78v200l-22 80-22 79-36 68-35 68-63 72c-34 40-91 100-126 134l-64 61-1 94v94l-18 73-18 73-18 9c-24 13-69 11-155-6zm-355-301c0-26-11-38-49-53-19-8-66-35-105-60l-71-47-57-61-57-62-37-66c-20-36-48-100-62-142l-26-77V850l-1-125 23-75c13-41 42-109 63-150l40-75-38 44c-91 103-143 220-163 360l-10 75 11 80c13 97 40 182 82 256l31 55 75 76 76 75 55 31c47 27 189 82 213 83 4 0 7-8 7-17z" />
    </g>
    <g fill="#ffad48" transform="matrix(.1 0 0 -.1 0 200)">
      <path d="m1195 1844-70-14-71-35-71-35-48-51-48-51-86-18-86-17-68-32c-174-78-314-222-386-394l-29-72-17-90-17-89 7-76c3-41 13-104 21-140l15-65 45-94 46-94 86-87 87-87 70-41c94-54 170-79 328-103l132-21 80 6c212 15 415 126 525 286 55 81 87 149 111 237l22 78v200l-22 80-22 79-36 68-35 68-63 72c-34 40-91 100-126 134l-64 61-1 94v94l-18 73-18 73-18 9c-24 13-69 11-155-6zm80-121c4-10 9-54 12-99l6-81-13-38-12-38-34-37-34-38-48-20c-41-18-149-42-189-42h-12l-6 54-7 53 12 57 11 56 32 47 32 47 47 30c41 25 149 63 184 65 7 1 15-7 19-16zm-435-180c0-26-11-38-49-53-19-8-66-35-105-60l-71-47-57-61-57-62-37-66c-20-36-48-100-62-142l-26-77V850l-1-125 23-75c13-41 42-109 63-150l40-75-38 44c-91 103-143 220-163 360l-10 75 11 80c13 97 40 182 82 256l31 55 75 76 76 75 55 31c47 27 189 82 213 83 4 0 7-8 7-17z" />
    </g>
    <g fill="#9b9b9b" transform="matrix(.1 0 0 -.1 0 200)">
      <path d="m1195 1844-70-14-71-35-71-35-48-51-48-51-86-18-86-17-68-32c-174-78-314-222-386-394l-29-72-17-90-17-89 7-76c3-41 13-104 21-140l15-65 44-91 44-91 71-76 71-76 69-46c87-58 163-89 270-111l84-17 106 6 105 5 78 25 78 25 70 42 70 41 64 61 65 60 47 71c56 84 87 159 108 256l15 72v178l-15 73-15 73-47 95-46 95-86 87-86 87-1 93v93l-18 73-18 73-18 9c-24 13-69 11-155-6zm80-121c4-10 9-54 12-99l6-81-13-38-12-38-34-37-34-38-48-20c-41-18-149-42-189-42h-12l-6 54-7 53 12 57 11 56 32 47 32 47 47 30c41 25 149 63 184 65 7 1 15-7 19-16zm-442-210c-9-55-10-144-1-188l7-31-34 4-34 4-31-30-30-30v-44l-25-30-25-30v-64l15-21 15-21 36-12c20-7 53-23 73-37l36-24 30 5 29 6 23 22c13 12 23 29 23 37 0 9 12 34 26 55l26 38v33c0 19-3 38-6 44l-7 10 23 5c13 2 51 9 86 15l62 10 66 32 66 32 47 54 48 54 58-63 57-63 43-90c24-49 49-115 56-145l13-55-1-95v-95l-17-59c-10-32-31-88-48-123l-30-64-48-60c-85-106-205-184-346-225l-59-17h-95l-95-1-55 13c-76 18-204 80-270 130-106 81-191 212-226 351l-17 65v180l17 70 17 70 37 75 37 75 80 81 80 81 55 31c48 26 189 81 213 82h8l-8-47zm21-347 38-17-15-17c-8-9-18-27-21-39l-7-23-39 23-39 22 14 22c8 12 15 30 15 38 0 9 3 15 8 13 4-2 24-12 46-22zM441 673l-21-14v-18c0-41 120-182 174-206l29-12 19 5c10 2 23 12 28 22l9 17-6 21-5 21-19 6c-24 8-82 66-120 121l-28 41-20 6-20 5-20-15z" />
    </g>
    <g fill="#b67a33" transform="matrix(.1 0 0 -.1 0 200)">
      <path d="m1195 1844-70-14-71-35-71-35-48-51-48-51-86-18-86-17-68-32c-174-78-314-222-386-394l-29-72-17-90-17-89 7-76c3-41 13-104 21-140l15-65 44-91 44-91 71-76 71-76 69-46c87-58 163-89 270-111l84-17 106 6 105 5 78 25 78 25 70 42 70 41 64 61 65 60 47 71c56 84 87 159 108 256l15 72v178l-15 73-15 73-47 95-46 95-86 87-86 87-1 93v93l-18 73-18 73-18 9c-24 13-69 11-155-6zm99-289c-3-22-15-59-25-82l-20-41-36-28c-48-36-121-63-195-71l-60-6-9 14-9 14v121l16 53 15 52 36 40c20 22 55 51 78 65l42 24 74 18 74 19 13-76 12-76-6-40zm-461-42c-9-55-10-144-1-188l7-31-34 4-34 4-31-30-30-30v-44l-25-30-25-30v-64l15-21 15-21 36-12c20-7 53-23 73-37l36-24 30 5 29 6 23 22c13 12 23 29 23 37 0 9 12 34 26 55l26 38v33c0 19-3 38-6 44l-7 10 23 5c13 2 51 9 86 15l62 10 66 32 66 32 47 54 48 54 58-63 57-63 43-90c24-49 49-115 56-145l13-55-1-95v-95l-17-59c-10-32-31-88-48-123l-30-64-48-60c-85-106-205-184-346-225l-59-17h-95l-95-1-55 13c-76 18-204 80-270 130-106 81-191 212-226 351l-17 65v180l17 70 17 70 37 75 37 75 80 81 80 81 55 31c48 26 189 81 213 82h8l-8-47zm21-347 38-17-15-17c-8-9-18-27-21-39l-7-23-39 23-39 22 14 22c8 12 15 30 15 38 0 9 3 15 8 13 4-2 24-12 46-22zM441 673l-21-14v-18c0-41 120-182 174-206l29-12 19 5c10 2 23 12 28 22l9 17-6 21-5 21-19 6c-24 8-82 66-120 121l-28 41-20 6-20 5-20-15z" />
    </g>
    <g fill="#5e4223" transform="matrix(.1 0 0 -.1 0 200)">
      <path d="m1195 1844-70-14-71-35-71-35-48-51-48-51-86-18-86-17-68-32c-174-78-314-222-386-394l-29-72-17-90-17-89 7-76c3-41 13-104 21-140l15-65 44-91 44-91 71-76 71-76 69-46c87-58 163-89 270-111l84-17 96 6 95 6 75 21 75 21 65 36c36 19 93 58 128 85l62 50 44 57c25 32 60 86 80 122l35 64 21 75 21 75 6 95 6 96-17 83c-21 105-46 168-101 256l-43 70-69 66-68 66-1 94v94l-18 73-18 73-18 9c-24 13-69 11-155-6zm99-289c-3-22-15-59-25-82l-20-41-36-28c-48-36-121-63-195-71l-60-6-9 14-9 14v121l16 53 15 52 36 40c20 22 55 51 78 65l42 24 74 18 74 19 13-76 12-76-6-40zm-459-128v-134l-17 5-16 4-35-17-34-16-12-25c-6-14-11-29-11-34s-11-26-25-46l-25-37v-21c0-12 7-32 16-45l17-23 36-15c20-8 48-24 63-34l26-19h73l24 26 25 27v39l25 30 25 30v29c0 17-5 39-10 50l-11 19h38c21 0 67 7 103 16l65 15 61 34 62 35 26 31c14 16 30 37 34 46l9 15 27-17c32-21 109-123 141-185 13-25 33-75 45-110l21-65 6-90 5-90-16-75-16-75-45-93-46-92-72-74-73-73-94-47-95-46-75-16-75-16-90 5-90 6-65 21c-227 76-389 246-446 470l-17 65v180l17 70 17 70 37 75 37 75 80 81 80 81 55 31c44 24 188 81 210 82 3 0 5-60 5-133zm47-267h21l-16-18c-9-10-22-33-28-51l-11-32-17 15c-9 8-29 20-45 26l-29 11 17 17c8 10 19 33 22 50l6 32 30-25 30-25h20zM436 664c-20-20-20-22 5-64 37-60 81-111 122-141l40-29h55l6 16c3 9 6 24 6 34v18l-35 22-36 22-55 69-55 69h-19c-10 0-26-7-34-16z" />
    </g>
    <g fill="#030201" transform="matrix(.1 0 0 -.1 0 200)">
      <path d="m1195 1844-70-14-71-35-71-35-48-51-48-51-86-18-86-17-68-32c-174-78-314-222-386-394l-29-72-17-90-17-89 7-76c3-41 13-104 21-140l15-65 44-91 44-91 71-76 71-76 69-46c85-57 161-88 262-109l77-16h126l93 19 93 20 64 29c176 83 294 201 377 377l29 64 20 93c23 113 24 159 4 273l-16 89-28 67c-16 37-49 98-74 136l-46 69-58 55-58 56-1 94v94l-18 73-18 73-18 9c-24 13-69 11-155-6zm95-166 12-71-5-48-6-48-20-39-20-40-38-31-38-32-61-18c-33-11-85-21-115-22l-54-3v199l20 40c10 21 35 55 55 75l36 36 48 22c38 18 131 47 168 51 3 1 12-31 18-71zm-454-230c-1-62 2-124 6-138l7-25-37 3-37 4-26-21-27-21-6-33-6-34-20-18-20-18v-77l20-20c11-11 32-23 47-26 16-4 41-18 56-31l29-23h60l29 29c16 16 29 36 29 45 0 8 12 32 26 53l26 38-5 25c-2 14-7 32-11 41l-7 17 58 7c84 10 170 40 233 79l55 34 25 41c14 22 28 41 32 41 3 0 33-30 66-66l61-65 40-82 40-82 16-65 15-65V823l-20-77-19-77-38-72-37-72-81-80-80-81-72-37-72-38-77-19-77-20H865l-65 15-65 16-85 41-85 42-70 72-70 72-34 56c-18 31-44 85-57 119l-22 64-11 78-11 79 11 81c13 96 40 181 82 255l31 55 75 76 76 75 55 31c45 26 188 82 211 83 3 0 5-51 5-112zm57-288h20l-21-22c-11-13-25-35-31-51l-11-27-32 20c-18 11-41 20-51 20h-18l20 28c11 16 23 40 26 54l7 26 35-24c20-13 45-24 56-24zM442 668c-7-7-12-20-12-31v-19l41-56c44-62 109-119 146-128l23-6 15 12c8 7 15 19 15 27v15l-68 67c-37 36-79 81-94 99-28 34-46 40-66 20z" />
    </g>
  </g>
</svg>